<svg width="375" height="667" viewBox="0 0 375 667" fill="none" xmlns="http://www.w3.org/2000/svg">
<g clip-path="url(#clip0_5630_2556)">
<rect width="375" height="667" fill="#262146"/>
<path d="M111.219 117V94.25H118.219C120.219 94.25 122.005 94.7031 123.578 95.6094C125.161 96.5052 126.396 97.7865 127.281 99.4531C128.167 101.109 128.609 102.995 128.609 105.109V106.156C128.609 108.271 128.172 110.151 127.297 111.797C126.432 113.443 125.208 114.719 123.625 115.625C122.042 116.531 120.255 116.99 118.266 117H111.219ZM115.906 98.0469V113.234H118.172C120.005 113.234 121.406 112.635 122.375 111.438C123.344 110.24 123.839 108.526 123.859 106.297V105.094C123.859 102.781 123.38 101.031 122.422 99.8438C121.464 98.6458 120.062 98.0469 118.219 98.0469H115.906ZM136.75 117H132.219V100.094H136.75V117ZM131.953 95.7188C131.953 95.0417 132.177 94.4844 132.625 94.0469C133.083 93.6094 133.703 93.3906 134.484 93.3906C135.255 93.3906 135.87 93.6094 136.328 94.0469C136.786 94.4844 137.016 95.0417 137.016 95.7188C137.016 96.4062 136.781 96.9688 136.312 97.4062C135.854 97.8438 135.245 98.0625 134.484 98.0625C133.724 98.0625 133.109 97.8438 132.641 97.4062C132.182 96.9688 131.953 96.4062 131.953 95.7188ZM149.891 112.328C149.891 111.776 149.615 111.344 149.062 111.031C148.521 110.708 147.646 110.422 146.438 110.172C142.417 109.328 140.406 107.62 140.406 105.047C140.406 103.547 141.026 102.297 142.266 101.297C143.516 100.286 145.146 99.7812 147.156 99.7812C149.302 99.7812 151.016 100.286 152.297 101.297C153.589 102.307 154.234 103.62 154.234 105.234H149.719C149.719 104.589 149.51 104.057 149.094 103.641C148.677 103.214 148.026 103 147.141 103C146.38 103 145.792 103.172 145.375 103.516C144.958 103.859 144.75 104.297 144.75 104.828C144.75 105.328 144.984 105.734 145.453 106.047C145.932 106.349 146.734 106.615 147.859 106.844C148.984 107.062 149.932 107.312 150.703 107.594C153.089 108.469 154.281 109.984 154.281 112.141C154.281 113.682 153.62 114.932 152.297 115.891C150.974 116.839 149.266 117.312 147.172 117.312C145.755 117.312 144.495 117.062 143.391 116.562C142.297 116.052 141.438 115.359 140.812 114.484C140.188 113.599 139.875 112.646 139.875 111.625H144.156C144.198 112.427 144.495 113.042 145.047 113.469C145.599 113.896 146.339 114.109 147.266 114.109C148.13 114.109 148.781 113.948 149.219 113.625C149.667 113.292 149.891 112.859 149.891 112.328ZM172.672 108.703C172.672 111.307 172.078 113.396 170.891 114.969C169.714 116.531 168.12 117.312 166.109 117.312C164.401 117.312 163.021 116.719 161.969 115.531V123.5H157.453V100.094H161.641L161.797 101.75C162.891 100.438 164.318 99.7812 166.078 99.7812C168.161 99.7812 169.781 100.552 170.938 102.094C172.094 103.635 172.672 105.76 172.672 108.469V108.703ZM168.156 108.375C168.156 106.802 167.875 105.589 167.312 104.734C166.76 103.88 165.953 103.453 164.891 103.453C163.474 103.453 162.5 103.995 161.969 105.078V112C162.521 113.115 163.505 113.672 164.922 113.672C167.078 113.672 168.156 111.906 168.156 108.375ZM185.531 117C185.323 116.594 185.172 116.089 185.078 115.484C183.984 116.703 182.562 117.312 180.812 117.312C179.156 117.312 177.781 116.833 176.688 115.875C175.604 114.917 175.062 113.708 175.062 112.25C175.062 110.458 175.724 109.083 177.047 108.125C178.38 107.167 180.302 106.682 182.812 106.672H184.891V105.703C184.891 104.922 184.688 104.297 184.281 103.828C183.885 103.359 183.255 103.125 182.391 103.125C181.63 103.125 181.031 103.307 180.594 103.672C180.167 104.036 179.953 104.536 179.953 105.172H175.438C175.438 104.193 175.74 103.286 176.344 102.453C176.948 101.62 177.802 100.969 178.906 100.5C180.01 100.021 181.25 99.7812 182.625 99.7812C184.708 99.7812 186.359 100.307 187.578 101.359C188.807 102.401 189.422 103.87 189.422 105.766V113.094C189.432 114.698 189.656 115.911 190.094 116.734V117H185.531ZM181.797 113.859C182.464 113.859 183.078 113.714 183.641 113.422C184.203 113.12 184.62 112.719 184.891 112.219V109.312H183.203C180.943 109.312 179.74 110.094 179.594 111.656L179.578 111.922C179.578 112.484 179.776 112.948 180.172 113.312C180.568 113.677 181.109 113.859 181.797 113.859ZM198.547 95.9375V100.094H201.438V103.406H198.547V111.844C198.547 112.469 198.667 112.917 198.906 113.188C199.146 113.458 199.604 113.594 200.281 113.594C200.781 113.594 201.224 113.557 201.609 113.484V116.906C200.724 117.177 199.812 117.312 198.875 117.312C195.708 117.312 194.094 115.714 194.031 112.516V103.406H191.562V100.094H194.031V95.9375H198.547ZM211.234 113.672C212.068 113.672 212.745 113.443 213.266 112.984C213.786 112.526 214.057 111.917 214.078 111.156H218.312C218.302 112.302 217.99 113.354 217.375 114.312C216.76 115.26 215.917 116 214.844 116.531C213.781 117.052 212.604 117.312 211.312 117.312C208.896 117.312 206.99 116.547 205.594 115.016C204.198 113.474 203.5 111.349 203.5 108.641V108.344C203.5 105.74 204.193 103.661 205.578 102.109C206.964 100.557 208.865 99.7812 211.281 99.7812C213.396 99.7812 215.089 100.385 216.359 101.594C217.641 102.792 218.292 104.391 218.312 106.391H214.078C214.057 105.516 213.786 104.807 213.266 104.266C212.745 103.714 212.057 103.438 211.203 103.438C210.151 103.438 209.354 103.823 208.812 104.594C208.281 105.354 208.016 106.594 208.016 108.312V108.781C208.016 110.521 208.281 111.771 208.812 112.531C209.344 113.292 210.151 113.672 211.234 113.672ZM225.547 101.938C226.745 100.5 228.25 99.7812 230.062 99.7812C233.729 99.7812 235.589 101.911 235.641 106.172V117H231.125V106.297C231.125 105.328 230.917 104.615 230.5 104.156C230.083 103.688 229.391 103.453 228.422 103.453C227.099 103.453 226.141 103.964 225.547 104.984V117H221.031V93H225.547V101.938ZM247.078 117.312C244.599 117.312 242.578 116.552 241.016 115.031C239.464 113.51 238.688 111.484 238.688 108.953V108.516C238.688 106.818 239.016 105.302 239.672 103.969C240.328 102.625 241.255 101.594 242.453 100.875C243.661 100.146 245.036 99.7812 246.578 99.7812C248.891 99.7812 250.708 100.51 252.031 101.969C253.365 103.427 254.031 105.495 254.031 108.172V110.016H243.266C243.411 111.12 243.849 112.005 244.578 112.672C245.318 113.339 246.25 113.672 247.375 113.672C249.115 113.672 250.474 113.042 251.453 111.781L253.672 114.266C252.995 115.224 252.078 115.974 250.922 116.516C249.766 117.047 248.484 117.312 247.078 117.312ZM246.562 103.438C245.667 103.438 244.938 103.74 244.375 104.344C243.823 104.948 243.469 105.812 243.312 106.938H249.594V106.578C249.573 105.578 249.302 104.807 248.781 104.266C248.26 103.714 247.521 103.438 246.562 103.438ZM266.359 104.328C265.745 104.245 265.203 104.203 264.734 104.203C263.026 104.203 261.906 104.781 261.375 105.938V117H256.859V100.094H261.125L261.25 102.109C262.156 100.557 263.411 99.7812 265.016 99.7812C265.516 99.7812 265.984 99.849 266.422 99.9844L266.359 104.328Z" fill="white"/>
<path opacity="0.6" d="M-291.121 528.633C-297.847 514.655 -293.185 498.08 -280.338 490.3L-20.3175 332.838C-5.53341 323.885 14.0053 330.073 21.7461 346.159L150.956 614.672C157.683 628.651 153.021 645.226 140.174 653.006L-119.847 810.468C-134.631 819.421 -154.17 813.233 -161.911 797.147L-291.121 528.633Z" fill="white"/>
<path d="M-321.354 539.927C-329.995 525.658 -325.8 507.309 -311.983 498.942L-51.5133 341.208C-37.6968 332.841 -19.4916 337.625 -10.8508 351.894L147.445 613.292C156.086 627.561 151.89 645.911 138.074 654.277L-122.396 812.011C-136.212 820.378 -154.418 815.594 -163.058 801.325L-321.354 539.927Z" fill="white"/>
<path d="M30.648 638.084C30.088 638.084 29.584 637.988 29.136 637.796C28.688 637.596 28.336 637.316 28.08 636.956C27.824 636.596 27.696 636.176 27.696 635.696H29.16C29.192 636.056 29.332 636.352 29.58 636.584C29.836 636.816 30.192 636.932 30.648 636.932C31.12 636.932 31.488 636.82 31.752 636.596C32.016 636.364 32.148 636.068 32.148 635.708C32.148 635.428 32.064 635.2 31.896 635.024C31.736 634.848 31.532 634.712 31.284 634.616C31.044 634.52 30.708 634.416 30.276 634.304C29.732 634.16 29.288 634.016 28.944 633.872C28.608 633.72 28.32 633.488 28.08 633.176C27.84 632.864 27.72 632.448 27.72 631.928C27.72 631.448 27.84 631.028 28.08 630.668C28.32 630.308 28.656 630.032 29.088 629.84C29.52 629.648 30.02 629.552 30.588 629.552C31.396 629.552 32.056 629.756 32.568 630.164C33.088 630.564 33.376 631.116 33.432 631.82H31.92C31.896 631.516 31.752 631.256 31.488 631.04C31.224 630.824 30.876 630.716 30.444 630.716C30.052 630.716 29.732 630.816 29.484 631.016C29.236 631.216 29.112 631.504 29.112 631.88C29.112 632.136 29.188 632.348 29.34 632.516C29.5 632.676 29.7 632.804 29.94 632.9C30.18 632.996 30.508 633.1 30.924 633.212C31.476 633.364 31.924 633.516 32.268 633.668C32.62 633.82 32.916 634.056 33.156 634.376C33.404 634.688 33.528 635.108 33.528 635.636C33.528 636.06 33.412 636.46 33.18 636.836C32.956 637.212 32.624 637.516 32.184 637.748C31.752 637.972 31.24 638.084 30.648 638.084ZM37.7582 634.7L40.8062 638H38.9582L36.5102 635.156V638H35.1422V629.12H36.5102V634.28L38.9102 631.388H40.8062L37.7582 634.7ZM42.4827 630.512C42.2347 630.512 42.0267 630.428 41.8587 630.26C41.6907 630.092 41.6067 629.884 41.6067 629.636C41.6067 629.388 41.6907 629.18 41.8587 629.012C42.0267 628.844 42.2347 628.76 42.4827 628.76C42.7227 628.76 42.9267 628.844 43.0947 629.012C43.2627 629.18 43.3467 629.388 43.3467 629.636C43.3467 629.884 43.2627 630.092 43.0947 630.26C42.9267 630.428 42.7227 630.512 42.4827 630.512ZM43.1547 631.388V638H41.7867V631.388H43.1547ZM46.3188 632.36C46.5508 632.056 46.8668 631.8 47.2668 631.592C47.6668 631.384 48.1188 631.28 48.6228 631.28C49.1988 631.28 49.7228 631.424 50.1948 631.712C50.6748 631.992 51.0508 632.388 51.3228 632.9C51.5948 633.412 51.7308 634 51.7308 634.664C51.7308 635.328 51.5948 635.924 51.3228 636.452C51.0508 636.972 50.6748 637.38 50.1948 637.676C49.7228 637.964 49.1988 638.108 48.6228 638.108C48.1188 638.108 47.6708 638.008 47.2788 637.808C46.8868 637.6 46.5668 637.344 46.3188 637.04V641.144H44.9508V631.388H46.3188V632.36ZM50.3388 634.664C50.3388 634.208 50.2428 633.816 50.0508 633.488C49.8668 633.152 49.6188 632.9 49.3068 632.732C49.0028 632.556 48.6748 632.468 48.3228 632.468C47.9788 632.468 47.6508 632.556 47.3388 632.732C47.0348 632.908 46.7868 633.164 46.5948 633.5C46.4108 633.836 46.3188 634.232 46.3188 634.688C46.3188 635.144 46.4108 635.544 46.5948 635.888C46.7868 636.224 47.0348 636.48 47.3388 636.656C47.6508 636.832 47.9788 636.92 48.3228 636.92C48.6748 636.92 49.0028 636.832 49.3068 636.656C49.6188 636.472 49.8668 636.208 50.0508 635.864C50.2428 635.52 50.3388 635.12 50.3388 634.664Z" fill="#262146"/>
<path d="M87.2803 198.273L90.3848 187.359H91.8887L91.0186 191.603L87.6777 203H86.1846L87.2803 198.273ZM84.0684 187.359L86.5391 198.059L87.2803 203H85.7979L82.0059 187.359H84.0684ZM95.9062 198.048L98.3232 187.359H100.396L96.6152 203H95.1328L95.9062 198.048ZM92.1143 187.359L95.1328 198.273L96.2285 203H94.7354L91.5127 191.603L90.6318 187.359H92.1143ZM106.874 203.215C106.065 203.215 105.331 203.079 104.672 202.807C104.02 202.527 103.458 202.137 102.985 201.636C102.52 201.134 102.162 200.54 101.911 199.853C101.66 199.165 101.535 198.413 101.535 197.597V197.146C101.535 196.2 101.675 195.359 101.954 194.621C102.233 193.876 102.613 193.246 103.093 192.73C103.573 192.215 104.117 191.825 104.726 191.56C105.334 191.295 105.965 191.162 106.616 191.162C107.447 191.162 108.163 191.305 108.765 191.592C109.373 191.878 109.871 192.279 110.258 192.795C110.645 193.303 110.931 193.905 111.117 194.6C111.303 195.287 111.396 196.039 111.396 196.855V197.747H102.717V196.125H109.409V195.975C109.381 195.459 109.273 194.958 109.087 194.471C108.908 193.984 108.621 193.583 108.228 193.268C107.834 192.952 107.297 192.795 106.616 192.795C106.165 192.795 105.75 192.892 105.37 193.085C104.991 193.271 104.665 193.55 104.393 193.923C104.12 194.295 103.909 194.75 103.759 195.287C103.608 195.824 103.533 196.444 103.533 197.146V197.597C103.533 198.148 103.608 198.667 103.759 199.154C103.916 199.634 104.142 200.057 104.436 200.422C104.736 200.787 105.098 201.074 105.521 201.281C105.95 201.489 106.437 201.593 106.981 201.593C107.683 201.593 108.278 201.45 108.765 201.163C109.252 200.877 109.678 200.493 110.043 200.014L111.246 200.97C110.995 201.349 110.677 201.711 110.29 202.055C109.903 202.398 109.427 202.678 108.861 202.893C108.303 203.107 107.64 203.215 106.874 203.215ZM115.876 186.5V203H113.878V186.5H115.876ZM123.718 201.582C124.19 201.582 124.627 201.485 125.028 201.292C125.429 201.099 125.759 200.834 126.017 200.497C126.274 200.153 126.421 199.763 126.457 199.326H128.348C128.312 200.014 128.079 200.655 127.649 201.249C127.227 201.836 126.672 202.312 125.984 202.678C125.297 203.036 124.541 203.215 123.718 203.215C122.844 203.215 122.081 203.061 121.43 202.753C120.785 202.445 120.248 202.022 119.818 201.485C119.396 200.948 119.077 200.332 118.862 199.638C118.655 198.936 118.551 198.195 118.551 197.414V196.963C118.551 196.182 118.655 195.445 118.862 194.75C119.077 194.048 119.396 193.429 119.818 192.892C120.248 192.354 120.785 191.932 121.43 191.624C122.081 191.316 122.844 191.162 123.718 191.162C124.627 191.162 125.422 191.348 126.103 191.721C126.783 192.086 127.316 192.587 127.703 193.225C128.097 193.855 128.312 194.571 128.348 195.373H126.457C126.421 194.893 126.285 194.46 126.049 194.073C125.82 193.687 125.505 193.379 125.104 193.149C124.71 192.913 124.248 192.795 123.718 192.795C123.109 192.795 122.597 192.917 122.182 193.16C121.773 193.396 121.448 193.719 121.204 194.127C120.968 194.528 120.796 194.976 120.688 195.47C120.588 195.957 120.538 196.454 120.538 196.963V197.414C120.538 197.923 120.588 198.424 120.688 198.918C120.789 199.412 120.957 199.86 121.193 200.261C121.437 200.662 121.763 200.984 122.171 201.228C122.586 201.464 123.102 201.582 123.718 201.582ZM130.056 197.317V197.07C130.056 196.232 130.177 195.455 130.421 194.739C130.664 194.016 131.015 193.389 131.474 192.859C131.932 192.322 132.487 191.907 133.139 191.613C133.79 191.312 134.521 191.162 135.33 191.162C136.146 191.162 136.881 191.312 137.532 191.613C138.191 191.907 138.75 192.322 139.208 192.859C139.674 193.389 140.028 194.016 140.271 194.739C140.515 195.455 140.637 196.232 140.637 197.07V197.317C140.637 198.155 140.515 198.932 140.271 199.648C140.028 200.365 139.674 200.991 139.208 201.528C138.75 202.058 138.195 202.474 137.543 202.774C136.898 203.068 136.168 203.215 135.352 203.215C134.535 203.215 133.801 203.068 133.149 202.774C132.498 202.474 131.939 202.058 131.474 201.528C131.015 200.991 130.664 200.365 130.421 199.648C130.177 198.932 130.056 198.155 130.056 197.317ZM132.043 197.07V197.317C132.043 197.897 132.111 198.445 132.247 198.961C132.383 199.469 132.587 199.921 132.859 200.314C133.139 200.708 133.486 201.02 133.901 201.249C134.317 201.471 134.8 201.582 135.352 201.582C135.896 201.582 136.372 201.471 136.78 201.249C137.196 201.02 137.539 200.708 137.812 200.314C138.084 199.921 138.288 199.469 138.424 198.961C138.567 198.445 138.639 197.897 138.639 197.317V197.07C138.639 196.497 138.567 195.957 138.424 195.448C138.288 194.933 138.08 194.478 137.801 194.084C137.529 193.683 137.185 193.368 136.77 193.139C136.361 192.91 135.882 192.795 135.33 192.795C134.786 192.795 134.306 192.91 133.891 193.139C133.482 193.368 133.139 193.683 132.859 194.084C132.587 194.478 132.383 194.933 132.247 195.448C132.111 195.957 132.043 196.497 132.043 197.07ZM145.116 193.858V203H143.129V191.377H145.009L145.116 193.858ZM144.644 196.748L143.816 196.716C143.824 195.921 143.942 195.187 144.171 194.514C144.4 193.833 144.722 193.243 145.138 192.741C145.553 192.24 146.047 191.853 146.62 191.581C147.2 191.302 147.841 191.162 148.543 191.162C149.116 191.162 149.632 191.241 150.09 191.398C150.548 191.549 150.938 191.792 151.261 192.129C151.59 192.465 151.841 192.902 152.013 193.439C152.185 193.969 152.271 194.618 152.271 195.384V203H150.272V195.362C150.272 194.754 150.183 194.267 150.004 193.901C149.825 193.529 149.563 193.26 149.22 193.096C148.876 192.924 148.453 192.838 147.952 192.838C147.458 192.838 147.007 192.942 146.599 193.149C146.198 193.357 145.85 193.644 145.557 194.009C145.27 194.374 145.045 194.793 144.88 195.266C144.722 195.731 144.644 196.225 144.644 196.748ZM165.612 191.377V192.902H159.328V191.377H165.612ZM161.455 188.552H163.442V200.121C163.442 200.515 163.503 200.812 163.625 201.013C163.747 201.213 163.904 201.346 164.098 201.41C164.291 201.475 164.499 201.507 164.721 201.507C164.885 201.507 165.057 201.493 165.236 201.464C165.423 201.428 165.562 201.399 165.655 201.378L165.666 203C165.508 203.05 165.301 203.097 165.043 203.14C164.792 203.19 164.488 203.215 164.13 203.215C163.643 203.215 163.195 203.118 162.787 202.925C162.379 202.731 162.053 202.409 161.81 201.958C161.573 201.5 161.455 200.884 161.455 200.11V188.552ZM167.202 197.317V197.07C167.202 196.232 167.324 195.455 167.567 194.739C167.811 194.016 168.162 193.389 168.62 192.859C169.078 192.322 169.633 191.907 170.285 191.613C170.937 191.312 171.667 191.162 172.477 191.162C173.293 191.162 174.027 191.312 174.679 191.613C175.338 191.907 175.896 192.322 176.354 192.859C176.82 193.389 177.174 194.016 177.418 194.739C177.661 195.455 177.783 196.232 177.783 197.07V197.317C177.783 198.155 177.661 198.932 177.418 199.648C177.174 200.365 176.82 200.991 176.354 201.528C175.896 202.058 175.341 202.474 174.689 202.774C174.045 203.068 173.314 203.215 172.498 203.215C171.682 203.215 170.948 203.068 170.296 202.774C169.644 202.474 169.086 202.058 168.62 201.528C168.162 200.991 167.811 200.365 167.567 199.648C167.324 198.932 167.202 198.155 167.202 197.317ZM169.189 197.07V197.317C169.189 197.897 169.257 198.445 169.394 198.961C169.53 199.469 169.734 199.921 170.006 200.314C170.285 200.708 170.632 201.02 171.048 201.249C171.463 201.471 171.947 201.582 172.498 201.582C173.042 201.582 173.519 201.471 173.927 201.249C174.342 201.02 174.686 200.708 174.958 200.314C175.23 199.921 175.434 199.469 175.57 198.961C175.714 198.445 175.785 197.897 175.785 197.317V197.07C175.785 196.497 175.714 195.957 175.57 195.448C175.434 194.933 175.227 194.478 174.947 194.084C174.675 193.683 174.331 193.368 173.916 193.139C173.508 192.91 173.028 192.795 172.477 192.795C171.932 192.795 171.452 192.91 171.037 193.139C170.629 193.368 170.285 193.683 170.006 194.084C169.734 194.478 169.53 194.933 169.394 195.448C169.257 195.957 169.189 196.497 169.189 197.07ZM190.266 203H187L187.021 201.313H190.266C191.383 201.313 192.314 201.081 193.059 200.615C193.803 200.143 194.362 199.484 194.734 198.639C195.114 197.786 195.304 196.791 195.304 195.652V194.696C195.304 193.801 195.196 193.006 194.981 192.312C194.767 191.61 194.451 191.019 194.036 190.539C193.621 190.052 193.112 189.683 192.511 189.433C191.916 189.182 191.232 189.057 190.459 189.057H186.936V187.359H190.459C191.483 187.359 192.418 187.531 193.263 187.875C194.108 188.212 194.835 188.702 195.443 189.347C196.059 189.984 196.532 190.757 196.861 191.667C197.191 192.569 197.355 193.586 197.355 194.718V195.652C197.355 196.784 197.191 197.804 196.861 198.714C196.532 199.616 196.056 200.386 195.433 201.023C194.817 201.661 194.072 202.151 193.198 202.495C192.332 202.832 191.354 203 190.266 203ZM188.106 187.359V203H186.033V187.359H188.106ZM202.329 191.377V203H200.331V191.377H202.329ZM200.181 188.294C200.181 187.972 200.277 187.7 200.471 187.478C200.671 187.256 200.965 187.145 201.352 187.145C201.731 187.145 202.021 187.256 202.222 187.478C202.429 187.7 202.533 187.972 202.533 188.294C202.533 188.602 202.429 188.867 202.222 189.089C202.021 189.304 201.731 189.411 201.352 189.411C200.965 189.411 200.671 189.304 200.471 189.089C200.277 188.867 200.181 188.602 200.181 188.294ZM212.287 199.917C212.287 199.631 212.223 199.366 212.094 199.122C211.972 198.871 211.718 198.646 211.331 198.445C210.951 198.238 210.379 198.059 209.612 197.908C208.968 197.772 208.384 197.611 207.861 197.425C207.346 197.239 206.905 197.013 206.54 196.748C206.182 196.483 205.906 196.172 205.713 195.813C205.52 195.455 205.423 195.036 205.423 194.557C205.423 194.098 205.523 193.665 205.724 193.257C205.931 192.849 206.221 192.487 206.594 192.172C206.973 191.857 207.428 191.61 207.958 191.431C208.488 191.252 209.079 191.162 209.73 191.162C210.661 191.162 211.456 191.327 212.115 191.656C212.774 191.986 213.279 192.426 213.63 192.978C213.981 193.522 214.156 194.127 214.156 194.793H212.169C212.169 194.471 212.072 194.159 211.879 193.858C211.693 193.55 211.417 193.296 211.052 193.096C210.694 192.895 210.253 192.795 209.73 192.795C209.179 192.795 208.731 192.881 208.388 193.053C208.051 193.217 207.804 193.429 207.646 193.687C207.496 193.944 207.421 194.216 207.421 194.503C207.421 194.718 207.457 194.911 207.528 195.083C207.607 195.248 207.743 195.402 207.937 195.545C208.13 195.681 208.402 195.81 208.753 195.932C209.104 196.053 209.551 196.175 210.096 196.297C211.048 196.512 211.832 196.77 212.448 197.07C213.064 197.371 213.522 197.74 213.823 198.177C214.124 198.614 214.274 199.144 214.274 199.767C214.274 200.275 214.167 200.741 213.952 201.163C213.744 201.586 213.44 201.951 213.039 202.259C212.645 202.56 212.173 202.796 211.621 202.968C211.077 203.132 210.465 203.215 209.784 203.215C208.76 203.215 207.894 203.032 207.185 202.667C206.476 202.302 205.938 201.829 205.573 201.249C205.208 200.669 205.025 200.057 205.025 199.412H207.023C207.052 199.956 207.21 200.39 207.496 200.712C207.783 201.027 208.133 201.253 208.549 201.389C208.964 201.518 209.376 201.582 209.784 201.582C210.328 201.582 210.783 201.51 211.148 201.367C211.521 201.224 211.804 201.027 211.997 200.776C212.19 200.526 212.287 200.239 212.287 199.917ZM218.872 193.611V207.469H216.874V191.377H218.7L218.872 193.611ZM226.703 197.092V197.317C226.703 198.162 226.603 198.947 226.402 199.67C226.202 200.386 225.908 201.009 225.521 201.539C225.142 202.069 224.673 202.481 224.114 202.774C223.556 203.068 222.915 203.215 222.191 203.215C221.454 203.215 220.802 203.093 220.236 202.85C219.671 202.606 219.191 202.252 218.797 201.786C218.403 201.321 218.088 200.762 217.852 200.11C217.622 199.459 217.465 198.725 217.379 197.908V196.705C217.465 195.846 217.626 195.076 217.862 194.396C218.099 193.715 218.41 193.135 218.797 192.655C219.191 192.168 219.667 191.799 220.226 191.549C220.784 191.291 221.429 191.162 222.159 191.162C222.89 191.162 223.538 191.305 224.104 191.592C224.669 191.871 225.146 192.272 225.532 192.795C225.919 193.318 226.209 193.944 226.402 194.675C226.603 195.398 226.703 196.204 226.703 197.092ZM224.705 197.317V197.092C224.705 196.512 224.644 195.967 224.522 195.459C224.401 194.943 224.211 194.492 223.953 194.105C223.702 193.712 223.38 193.404 222.986 193.182C222.592 192.952 222.123 192.838 221.579 192.838C221.078 192.838 220.641 192.924 220.269 193.096C219.903 193.268 219.592 193.5 219.334 193.794C219.076 194.08 218.865 194.41 218.7 194.782C218.543 195.147 218.424 195.527 218.346 195.921V198.703C218.489 199.204 218.689 199.677 218.947 200.121C219.205 200.558 219.549 200.912 219.979 201.185C220.408 201.45 220.949 201.582 221.601 201.582C222.138 201.582 222.6 201.471 222.986 201.249C223.38 201.02 223.702 200.708 223.953 200.314C224.211 199.921 224.401 199.469 224.522 198.961C224.644 198.445 224.705 197.897 224.705 197.317ZM236.092 201.013V195.029C236.092 194.571 235.999 194.174 235.812 193.837C235.633 193.493 235.361 193.228 234.996 193.042C234.631 192.856 234.18 192.763 233.643 192.763C233.141 192.763 232.701 192.849 232.321 193.021C231.949 193.192 231.655 193.418 231.44 193.697C231.233 193.977 231.129 194.277 231.129 194.6H229.142C229.142 194.184 229.249 193.772 229.464 193.364C229.679 192.956 229.987 192.587 230.388 192.258C230.796 191.921 231.283 191.656 231.849 191.463C232.422 191.262 233.059 191.162 233.761 191.162C234.606 191.162 235.351 191.305 235.995 191.592C236.647 191.878 237.155 192.312 237.521 192.892C237.893 193.465 238.079 194.184 238.079 195.051V200.465C238.079 200.852 238.111 201.263 238.176 201.7C238.247 202.137 238.351 202.513 238.487 202.828V203H236.414C236.314 202.771 236.235 202.466 236.178 202.087C236.12 201.7 236.092 201.342 236.092 201.013ZM236.436 195.953L236.457 197.35H234.448C233.882 197.35 233.378 197.396 232.934 197.489C232.49 197.575 232.117 197.708 231.816 197.887C231.516 198.066 231.286 198.291 231.129 198.563C230.971 198.828 230.893 199.14 230.893 199.498C230.893 199.863 230.975 200.196 231.14 200.497C231.304 200.798 231.551 201.038 231.881 201.217C232.217 201.389 232.629 201.475 233.116 201.475C233.725 201.475 234.262 201.346 234.728 201.088C235.193 200.83 235.562 200.515 235.834 200.143C236.113 199.77 236.264 199.409 236.285 199.058L237.134 200.014C237.084 200.314 236.948 200.647 236.726 201.013C236.504 201.378 236.206 201.729 235.834 202.065C235.469 202.395 235.032 202.671 234.523 202.893C234.022 203.107 233.456 203.215 232.826 203.215C232.038 203.215 231.347 203.061 230.753 202.753C230.166 202.445 229.707 202.033 229.378 201.518C229.056 200.995 228.895 200.411 228.895 199.767C228.895 199.144 229.016 198.596 229.26 198.123C229.503 197.643 229.854 197.246 230.312 196.931C230.771 196.608 231.322 196.365 231.967 196.2C232.611 196.035 233.331 195.953 234.126 195.953H236.436ZM246.071 191.377V192.902H239.787V191.377H246.071ZM241.914 188.552H243.901V200.121C243.901 200.515 243.962 200.812 244.084 201.013C244.206 201.213 244.363 201.346 244.557 201.41C244.75 201.475 244.958 201.507 245.18 201.507C245.344 201.507 245.516 201.493 245.695 201.464C245.882 201.428 246.021 201.399 246.114 201.378L246.125 203C245.967 203.05 245.76 203.097 245.502 203.14C245.251 203.19 244.947 203.215 244.589 203.215C244.102 203.215 243.654 203.118 243.246 202.925C242.838 202.731 242.512 202.409 242.269 201.958C242.032 201.5 241.914 200.884 241.914 200.11V188.552ZM253.054 201.582C253.526 201.582 253.963 201.485 254.364 201.292C254.765 201.099 255.095 200.834 255.353 200.497C255.61 200.153 255.757 199.763 255.793 199.326H257.684C257.648 200.014 257.415 200.655 256.985 201.249C256.563 201.836 256.008 202.312 255.32 202.678C254.633 203.036 253.877 203.215 253.054 203.215C252.18 203.215 251.417 203.061 250.766 202.753C250.121 202.445 249.584 202.022 249.154 201.485C248.732 200.948 248.413 200.332 248.198 199.638C247.991 198.936 247.887 198.195 247.887 197.414V196.963C247.887 196.182 247.991 195.445 248.198 194.75C248.413 194.048 248.732 193.429 249.154 192.892C249.584 192.354 250.121 191.932 250.766 191.624C251.417 191.316 252.18 191.162 253.054 191.162C253.963 191.162 254.758 191.348 255.438 191.721C256.119 192.086 256.652 192.587 257.039 193.225C257.433 193.855 257.648 194.571 257.684 195.373H255.793C255.757 194.893 255.621 194.46 255.385 194.073C255.156 193.687 254.84 193.379 254.439 193.149C254.046 192.913 253.584 192.795 253.054 192.795C252.445 192.795 251.933 192.917 251.518 193.16C251.109 193.396 250.784 193.719 250.54 194.127C250.304 194.528 250.132 194.976 250.024 195.47C249.924 195.957 249.874 196.454 249.874 196.963V197.414C249.874 197.923 249.924 198.424 250.024 198.918C250.125 199.412 250.293 199.86 250.529 200.261C250.773 200.662 251.099 200.984 251.507 201.228C251.922 201.464 252.438 201.582 253.054 201.582ZM261.905 186.5V203H259.918V186.5H261.905ZM261.433 196.748L260.605 196.716C260.613 195.921 260.731 195.187 260.96 194.514C261.189 193.833 261.511 193.243 261.927 192.741C262.342 192.24 262.836 191.853 263.409 191.581C263.989 191.302 264.63 191.162 265.332 191.162C265.905 191.162 266.421 191.241 266.879 191.398C267.337 191.549 267.728 191.792 268.05 192.129C268.379 192.465 268.63 192.902 268.802 193.439C268.974 193.969 269.06 194.618 269.06 195.384V203H267.062V195.362C267.062 194.754 266.972 194.267 266.793 193.901C266.614 193.529 266.353 193.26 266.009 193.096C265.665 192.924 265.243 192.838 264.741 192.838C264.247 192.838 263.796 192.942 263.388 193.149C262.987 193.357 262.639 193.644 262.346 194.009C262.059 194.374 261.834 194.793 261.669 195.266C261.511 195.731 261.433 196.225 261.433 196.748ZM276.858 203.215C276.049 203.215 275.315 203.079 274.656 202.807C274.005 202.527 273.442 202.137 272.97 201.636C272.504 201.134 272.146 200.54 271.896 199.853C271.645 199.165 271.52 198.413 271.52 197.597V197.146C271.52 196.2 271.659 195.359 271.938 194.621C272.218 193.876 272.597 193.246 273.077 192.73C273.557 192.215 274.101 191.825 274.71 191.56C275.319 191.295 275.949 191.162 276.601 191.162C277.431 191.162 278.147 191.305 278.749 191.592C279.358 191.878 279.855 192.279 280.242 192.795C280.629 193.303 280.915 193.905 281.102 194.6C281.288 195.287 281.381 196.039 281.381 196.855V197.747H272.701V196.125H279.394V195.975C279.365 195.459 279.257 194.958 279.071 194.471C278.892 193.984 278.606 193.583 278.212 193.268C277.818 192.952 277.281 192.795 276.601 192.795C276.149 192.795 275.734 192.892 275.354 193.085C274.975 193.271 274.649 193.55 274.377 193.923C274.105 194.295 273.894 194.75 273.743 195.287C273.593 195.824 273.518 196.444 273.518 197.146V197.597C273.518 198.148 273.593 198.667 273.743 199.154C273.901 199.634 274.126 200.057 274.42 200.422C274.721 200.787 275.082 201.074 275.505 201.281C275.935 201.489 276.422 201.593 276.966 201.593C277.668 201.593 278.262 201.45 278.749 201.163C279.236 200.877 279.662 200.493 280.027 200.014L281.23 200.97C280.98 201.349 280.661 201.711 280.274 202.055C279.888 202.398 279.411 202.678 278.846 202.893C278.287 203.107 277.625 203.215 276.858 203.215ZM285.688 193.203V203H283.701V191.377H285.635L285.688 193.203ZM289.319 191.312L289.309 193.16C289.144 193.124 288.986 193.103 288.836 193.096C288.693 193.081 288.528 193.074 288.342 193.074C287.883 193.074 287.479 193.146 287.128 193.289C286.777 193.432 286.48 193.633 286.236 193.891C285.993 194.148 285.799 194.456 285.656 194.814C285.52 195.165 285.431 195.552 285.388 195.975L284.829 196.297C284.829 195.595 284.897 194.936 285.033 194.32C285.176 193.704 285.395 193.16 285.688 192.688C285.982 192.208 286.354 191.835 286.806 191.57C287.264 191.298 287.808 191.162 288.438 191.162C288.582 191.162 288.746 191.18 288.933 191.216C289.119 191.244 289.248 191.277 289.319 191.312ZM291.629 200.637V202.237C291.629 202.889 291.464 203.576 291.135 204.3C290.805 205.03 290.343 205.639 289.749 206.126L288.621 205.342C288.85 205.027 289.044 204.704 289.201 204.375C289.359 204.053 289.477 203.716 289.556 203.365C289.642 203.021 289.685 202.656 289.685 202.27V200.637H291.629ZM70.0283 217.377V218.902H63.7441V217.377H70.0283ZM65.8711 214.552H67.8584V226.121C67.8584 226.515 67.9193 226.812 68.041 227.013C68.1628 227.213 68.3203 227.346 68.5137 227.41C68.707 227.475 68.9147 227.507 69.1367 227.507C69.3014 227.507 69.4733 227.493 69.6523 227.464C69.8385 227.428 69.9782 227.399 70.0713 227.378L70.082 229C69.9245 229.05 69.7168 229.097 69.459 229.14C69.2083 229.19 68.904 229.215 68.5459 229.215C68.0589 229.215 67.6113 229.118 67.2031 228.925C66.7949 228.731 66.4691 228.409 66.2256 227.958C65.9893 227.5 65.8711 226.884 65.8711 226.11V214.552ZM74.3467 212.5V229H72.3594V212.5H74.3467ZM73.874 222.748L73.0469 222.716C73.054 221.921 73.1722 221.187 73.4014 220.514C73.6305 219.833 73.9528 219.243 74.3682 218.741C74.7835 218.24 75.2777 217.853 75.8506 217.581C76.4307 217.302 77.0716 217.162 77.7734 217.162C78.3464 217.162 78.862 217.241 79.3203 217.398C79.7786 217.549 80.1689 217.792 80.4912 218.129C80.8206 218.465 81.0713 218.902 81.2432 219.439C81.415 219.969 81.501 220.618 81.501 221.384V229H79.5029V221.362C79.5029 220.754 79.4134 220.267 79.2344 219.901C79.0553 219.529 78.7939 219.26 78.4502 219.096C78.1064 218.924 77.6839 218.838 77.1826 218.838C76.6885 218.838 76.2373 218.942 75.8291 219.149C75.4281 219.357 75.0807 219.644 74.7871 220.009C74.5007 220.374 74.2751 220.793 74.1104 221.266C73.9528 221.731 73.874 222.225 73.874 222.748ZM89.2998 229.215C88.4906 229.215 87.7565 229.079 87.0977 228.807C86.446 228.527 85.8838 228.137 85.4111 227.636C84.9456 227.134 84.5876 226.54 84.3369 225.853C84.0863 225.165 83.9609 224.413 83.9609 223.597V223.146C83.9609 222.2 84.1006 221.359 84.3799 220.621C84.6592 219.876 85.0387 219.246 85.5186 218.73C85.9984 218.215 86.5426 217.825 87.1514 217.56C87.7601 217.295 88.3903 217.162 89.042 217.162C89.8727 217.162 90.5889 217.305 91.1904 217.592C91.7992 217.878 92.2969 218.279 92.6836 218.795C93.0703 219.303 93.3568 219.905 93.543 220.6C93.7292 221.287 93.8223 222.039 93.8223 222.855V223.747H85.1426V222.125H91.835V221.975C91.8063 221.459 91.6989 220.958 91.5127 220.471C91.3337 219.984 91.0472 219.583 90.6533 219.268C90.2594 218.952 89.7223 218.795 89.042 218.795C88.5908 218.795 88.1755 218.892 87.7959 219.085C87.4163 219.271 87.0905 219.55 86.8184 219.923C86.5462 220.295 86.335 220.75 86.1846 221.287C86.0342 221.824 85.959 222.444 85.959 223.146V223.597C85.959 224.148 86.0342 224.667 86.1846 225.154C86.3421 225.634 86.5677 226.057 86.8613 226.422C87.1621 226.787 87.5238 227.074 87.9463 227.281C88.376 227.489 88.863 227.593 89.4072 227.593C90.109 227.593 90.7035 227.45 91.1904 227.163C91.6774 226.877 92.1035 226.493 92.4688 226.014L93.6719 226.97C93.4212 227.349 93.1025 227.711 92.7158 228.055C92.3291 228.398 91.8529 228.678 91.2871 228.893C90.7285 229.107 90.0661 229.215 89.2998 229.215ZM103.587 219.203V229H101.6V217.377H103.533L103.587 219.203ZM107.218 217.312L107.207 219.16C107.042 219.124 106.885 219.103 106.734 219.096C106.591 219.081 106.426 219.074 106.24 219.074C105.782 219.074 105.377 219.146 105.026 219.289C104.675 219.432 104.378 219.633 104.135 219.891C103.891 220.148 103.698 220.456 103.555 220.814C103.419 221.165 103.329 221.552 103.286 221.975L102.728 222.297C102.728 221.595 102.796 220.936 102.932 220.32C103.075 219.704 103.293 219.16 103.587 218.688C103.881 218.208 104.253 217.835 104.704 217.57C105.162 217.298 105.707 217.162 106.337 217.162C106.48 217.162 106.645 217.18 106.831 217.216C107.017 217.244 107.146 217.277 107.218 217.312ZM111.214 217.377V229H109.216V217.377H111.214ZM109.065 214.294C109.065 213.972 109.162 213.7 109.355 213.478C109.556 213.256 109.85 213.145 110.236 213.145C110.616 213.145 110.906 213.256 111.106 213.478C111.314 213.7 111.418 213.972 111.418 214.294C111.418 214.602 111.314 214.867 111.106 215.089C110.906 215.304 110.616 215.411 110.236 215.411C109.85 215.411 109.556 215.304 109.355 215.089C109.162 214.867 109.065 214.602 109.065 214.294ZM121.935 217.377H123.739V228.753C123.739 229.777 123.532 230.651 123.116 231.374C122.701 232.097 122.121 232.645 121.376 233.018C120.638 233.397 119.786 233.587 118.819 233.587C118.418 233.587 117.946 233.522 117.401 233.394C116.864 233.272 116.334 233.061 115.812 232.76C115.296 232.466 114.863 232.069 114.512 231.567L115.554 230.386C116.041 230.973 116.549 231.381 117.079 231.61C117.616 231.84 118.146 231.954 118.669 231.954C119.299 231.954 119.843 231.836 120.302 231.6C120.76 231.363 121.115 231.012 121.365 230.547C121.623 230.089 121.752 229.523 121.752 228.85V219.934L121.935 217.377ZM113.932 223.317V223.092C113.932 222.204 114.035 221.398 114.243 220.675C114.458 219.944 114.762 219.318 115.156 218.795C115.557 218.272 116.041 217.871 116.606 217.592C117.172 217.305 117.81 217.162 118.519 217.162C119.249 217.162 119.886 217.291 120.431 217.549C120.982 217.799 121.448 218.168 121.827 218.655C122.214 219.135 122.518 219.715 122.74 220.396C122.962 221.076 123.116 221.846 123.202 222.705V223.693C123.123 224.546 122.969 225.312 122.74 225.992C122.518 226.673 122.214 227.253 121.827 227.732C121.448 228.212 120.982 228.581 120.431 228.839C119.879 229.09 119.235 229.215 118.497 229.215C117.802 229.215 117.172 229.068 116.606 228.774C116.048 228.481 115.568 228.069 115.167 227.539C114.766 227.009 114.458 226.386 114.243 225.67C114.035 224.947 113.932 224.162 113.932 223.317ZM115.919 223.092V223.317C115.919 223.897 115.976 224.442 116.091 224.95C116.213 225.459 116.395 225.906 116.639 226.293C116.889 226.68 117.208 226.984 117.595 227.206C117.981 227.421 118.443 227.528 118.98 227.528C119.639 227.528 120.184 227.389 120.613 227.109C121.043 226.83 121.383 226.461 121.634 226.003C121.892 225.545 122.092 225.047 122.235 224.51V221.921C122.157 221.527 122.035 221.147 121.87 220.782C121.713 220.41 121.505 220.08 121.247 219.794C120.996 219.5 120.685 219.268 120.312 219.096C119.94 218.924 119.503 218.838 119.002 218.838C118.458 218.838 117.989 218.952 117.595 219.182C117.208 219.404 116.889 219.712 116.639 220.105C116.395 220.492 116.213 220.943 116.091 221.459C115.976 221.967 115.919 222.512 115.919 223.092ZM128.745 212.5V229H126.758V212.5H128.745ZM128.272 222.748L127.445 222.716C127.452 221.921 127.571 221.187 127.8 220.514C128.029 219.833 128.351 219.243 128.767 218.741C129.182 218.24 129.676 217.853 130.249 217.581C130.829 217.302 131.47 217.162 132.172 217.162C132.745 217.162 133.26 217.241 133.719 217.398C134.177 217.549 134.567 217.792 134.89 218.129C135.219 218.465 135.47 218.902 135.642 219.439C135.813 219.969 135.899 220.618 135.899 221.384V229H133.901V221.362C133.901 220.754 133.812 220.267 133.633 219.901C133.454 219.529 133.192 219.26 132.849 219.096C132.505 218.924 132.082 218.838 131.581 218.838C131.087 218.838 130.636 218.942 130.228 219.149C129.826 219.357 129.479 219.644 129.186 220.009C128.899 220.374 128.674 220.793 128.509 221.266C128.351 221.731 128.272 222.225 128.272 222.748ZM143.741 217.377V218.902H137.457V217.377H143.741ZM139.584 214.552H141.571V226.121C141.571 226.515 141.632 226.812 141.754 227.013C141.876 227.213 142.033 227.346 142.227 227.41C142.42 227.475 142.628 227.507 142.85 227.507C143.014 227.507 143.186 227.493 143.365 227.464C143.551 227.428 143.691 227.399 143.784 227.378L143.795 229C143.637 229.05 143.43 229.097 143.172 229.14C142.921 229.19 142.617 229.215 142.259 229.215C141.772 229.215 141.324 229.118 140.916 228.925C140.508 228.731 140.182 228.409 139.938 227.958C139.702 227.5 139.584 226.884 139.584 226.11V214.552ZM154.473 226.938L157.459 217.377H158.77L158.512 219.278L155.472 229H154.193L154.473 226.938ZM152.464 217.377L155.01 227.045L155.192 229H153.85L150.477 217.377H152.464ZM161.627 226.97L164.055 217.377H166.031L162.658 229H161.326L161.627 226.97ZM159.06 217.377L161.981 226.776L162.314 229H161.047L157.921 219.257L157.663 217.377H159.06ZM174.926 227.013V221.029C174.926 220.571 174.833 220.174 174.646 219.837C174.467 219.493 174.195 219.228 173.83 219.042C173.465 218.856 173.014 218.763 172.477 218.763C171.975 218.763 171.535 218.849 171.155 219.021C170.783 219.192 170.489 219.418 170.274 219.697C170.067 219.977 169.963 220.277 169.963 220.6H167.976C167.976 220.184 168.083 219.772 168.298 219.364C168.513 218.956 168.821 218.587 169.222 218.258C169.63 217.921 170.117 217.656 170.683 217.463C171.256 217.262 171.893 217.162 172.595 217.162C173.44 217.162 174.185 217.305 174.829 217.592C175.481 217.878 175.989 218.312 176.354 218.892C176.727 219.465 176.913 220.184 176.913 221.051V226.465C176.913 226.852 176.945 227.263 177.01 227.7C177.081 228.137 177.185 228.513 177.321 228.828V229H175.248C175.148 228.771 175.069 228.466 175.012 228.087C174.954 227.7 174.926 227.342 174.926 227.013ZM175.27 221.953L175.291 223.35H173.282C172.716 223.35 172.212 223.396 171.768 223.489C171.324 223.575 170.951 223.708 170.65 223.887C170.35 224.066 170.12 224.291 169.963 224.563C169.805 224.828 169.727 225.14 169.727 225.498C169.727 225.863 169.809 226.196 169.974 226.497C170.138 226.798 170.385 227.038 170.715 227.217C171.051 227.389 171.463 227.475 171.95 227.475C172.559 227.475 173.096 227.346 173.562 227.088C174.027 226.83 174.396 226.515 174.668 226.143C174.947 225.77 175.098 225.409 175.119 225.058L175.968 226.014C175.918 226.314 175.782 226.647 175.56 227.013C175.338 227.378 175.04 227.729 174.668 228.065C174.303 228.395 173.866 228.671 173.357 228.893C172.856 229.107 172.29 229.215 171.66 229.215C170.872 229.215 170.181 229.061 169.587 228.753C169 228.445 168.541 228.033 168.212 227.518C167.89 226.995 167.729 226.411 167.729 225.767C167.729 225.144 167.85 224.596 168.094 224.123C168.337 223.643 168.688 223.246 169.146 222.931C169.605 222.608 170.156 222.365 170.801 222.2C171.445 222.035 172.165 221.953 172.96 221.953H175.27ZM183.133 227.797L186.366 217.377H188.493L183.831 230.794C183.724 231.08 183.58 231.388 183.401 231.718C183.229 232.054 183.007 232.373 182.735 232.674C182.463 232.975 182.134 233.218 181.747 233.404C181.368 233.598 180.913 233.694 180.383 233.694C180.225 233.694 180.025 233.673 179.781 233.63C179.538 233.587 179.366 233.551 179.266 233.522L179.255 231.911C179.312 231.918 179.402 231.925 179.523 231.933C179.652 231.947 179.742 231.954 179.792 231.954C180.243 231.954 180.626 231.893 180.941 231.771C181.257 231.657 181.521 231.46 181.736 231.181C181.958 230.909 182.148 230.533 182.306 230.053L183.133 227.797ZM180.759 217.377L183.777 226.4L184.293 228.495L182.864 229.226L178.589 217.377H180.759ZM200.61 217.377V218.902H194.326V217.377H200.61ZM196.453 214.552H198.44V226.121C198.44 226.515 198.501 226.812 198.623 227.013C198.745 227.213 198.902 227.346 199.096 227.41C199.289 227.475 199.497 227.507 199.719 227.507C199.883 227.507 200.055 227.493 200.234 227.464C200.421 227.428 200.56 227.399 200.653 227.378L200.664 229C200.507 229.05 200.299 229.097 200.041 229.14C199.79 229.19 199.486 229.215 199.128 229.215C198.641 229.215 198.193 229.118 197.785 228.925C197.377 228.731 197.051 228.409 196.808 227.958C196.571 227.5 196.453 226.884 196.453 226.11V214.552ZM202.2 223.317V223.07C202.2 222.232 202.322 221.455 202.565 220.739C202.809 220.016 203.16 219.389 203.618 218.859C204.076 218.322 204.632 217.907 205.283 217.613C205.935 217.312 206.665 217.162 207.475 217.162C208.291 217.162 209.025 217.312 209.677 217.613C210.336 217.907 210.894 218.322 211.353 218.859C211.818 219.389 212.173 220.016 212.416 220.739C212.66 221.455 212.781 222.232 212.781 223.07V223.317C212.781 224.155 212.66 224.932 212.416 225.648C212.173 226.365 211.818 226.991 211.353 227.528C210.894 228.058 210.339 228.474 209.688 228.774C209.043 229.068 208.312 229.215 207.496 229.215C206.68 229.215 205.946 229.068 205.294 228.774C204.642 228.474 204.084 228.058 203.618 227.528C203.16 226.991 202.809 226.365 202.565 225.648C202.322 224.932 202.2 224.155 202.2 223.317ZM204.188 223.07V223.317C204.188 223.897 204.256 224.445 204.392 224.961C204.528 225.469 204.732 225.921 205.004 226.314C205.283 226.708 205.631 227.02 206.046 227.249C206.461 227.471 206.945 227.582 207.496 227.582C208.04 227.582 208.517 227.471 208.925 227.249C209.34 227.02 209.684 226.708 209.956 226.314C210.228 225.921 210.432 225.469 210.568 224.961C210.712 224.445 210.783 223.897 210.783 223.317V223.07C210.783 222.497 210.712 221.957 210.568 221.448C210.432 220.933 210.225 220.478 209.945 220.084C209.673 219.683 209.329 219.368 208.914 219.139C208.506 218.91 208.026 218.795 207.475 218.795C206.93 218.795 206.451 218.91 206.035 219.139C205.627 219.368 205.283 219.683 205.004 220.084C204.732 220.478 204.528 220.933 204.392 221.448C204.256 221.957 204.188 222.497 204.188 223.07ZM222.718 219.203V229H220.73V217.377H222.664L222.718 219.203ZM226.349 217.312L226.338 219.16C226.173 219.124 226.016 219.103 225.865 219.096C225.722 219.081 225.557 219.074 225.371 219.074C224.913 219.074 224.508 219.146 224.157 219.289C223.806 219.432 223.509 219.633 223.266 219.891C223.022 220.148 222.829 220.456 222.686 220.814C222.549 221.165 222.46 221.552 222.417 221.975L221.858 222.297C221.858 221.595 221.926 220.936 222.062 220.32C222.206 219.704 222.424 219.16 222.718 218.688C223.011 218.208 223.384 217.835 223.835 217.57C224.293 217.298 224.838 217.162 225.468 217.162C225.611 217.162 225.776 217.18 225.962 217.216C226.148 217.244 226.277 217.277 226.349 217.312ZM232.794 229.215C231.985 229.215 231.251 229.079 230.592 228.807C229.94 228.527 229.378 228.137 228.905 227.636C228.44 227.134 228.082 226.54 227.831 225.853C227.58 225.165 227.455 224.413 227.455 223.597V223.146C227.455 222.2 227.595 221.359 227.874 220.621C228.153 219.876 228.533 219.246 229.013 218.73C229.493 218.215 230.037 217.825 230.646 217.56C231.254 217.295 231.884 217.162 232.536 217.162C233.367 217.162 234.083 217.305 234.685 217.592C235.293 217.878 235.791 218.279 236.178 218.795C236.564 219.303 236.851 219.905 237.037 220.6C237.223 221.287 237.316 222.039 237.316 222.855V223.747H228.637V222.125H235.329V221.975C235.3 221.459 235.193 220.958 235.007 220.471C234.828 219.984 234.541 219.583 234.147 219.268C233.754 218.952 233.216 218.795 232.536 218.795C232.085 218.795 231.67 218.892 231.29 219.085C230.91 219.271 230.585 219.55 230.312 219.923C230.04 220.295 229.829 220.75 229.679 221.287C229.528 221.824 229.453 222.444 229.453 223.146V223.597C229.453 224.148 229.528 224.667 229.679 225.154C229.836 225.634 230.062 226.057 230.355 226.422C230.656 226.787 231.018 227.074 231.44 227.281C231.87 227.489 232.357 227.593 232.901 227.593C233.603 227.593 234.198 227.45 234.685 227.163C235.172 226.877 235.598 226.493 235.963 226.014L237.166 226.97C236.915 227.349 236.597 227.711 236.21 228.055C235.823 228.398 235.347 228.678 234.781 228.893C234.223 229.107 233.56 229.215 232.794 229.215ZM246.49 227.013V221.029C246.49 220.571 246.397 220.174 246.211 219.837C246.032 219.493 245.76 219.228 245.395 219.042C245.029 218.856 244.578 218.763 244.041 218.763C243.54 218.763 243.099 218.849 242.72 219.021C242.347 219.192 242.054 219.418 241.839 219.697C241.631 219.977 241.527 220.277 241.527 220.6H239.54C239.54 220.184 239.647 219.772 239.862 219.364C240.077 218.956 240.385 218.587 240.786 218.258C241.194 217.921 241.681 217.656 242.247 217.463C242.82 217.262 243.457 217.162 244.159 217.162C245.004 217.162 245.749 217.305 246.394 217.592C247.045 217.878 247.554 218.312 247.919 218.892C248.291 219.465 248.478 220.184 248.478 221.051V226.465C248.478 226.852 248.51 227.263 248.574 227.7C248.646 228.137 248.75 228.513 248.886 228.828V229H246.812C246.712 228.771 246.633 228.466 246.576 228.087C246.519 227.7 246.49 227.342 246.49 227.013ZM246.834 221.953L246.855 223.35H244.847C244.281 223.35 243.776 223.396 243.332 223.489C242.888 223.575 242.516 223.708 242.215 223.887C241.914 224.066 241.685 224.291 241.527 224.563C241.37 224.828 241.291 225.14 241.291 225.498C241.291 225.863 241.373 226.196 241.538 226.497C241.703 226.798 241.95 227.038 242.279 227.217C242.616 227.389 243.028 227.475 243.515 227.475C244.123 227.475 244.66 227.346 245.126 227.088C245.591 226.83 245.96 226.515 246.232 226.143C246.512 225.77 246.662 225.409 246.684 225.058L247.532 226.014C247.482 226.314 247.346 226.647 247.124 227.013C246.902 227.378 246.605 227.729 246.232 228.065C245.867 228.395 245.43 228.671 244.922 228.893C244.421 229.107 243.855 229.215 243.225 229.215C242.437 229.215 241.746 229.061 241.151 228.753C240.564 228.445 240.106 228.033 239.776 227.518C239.454 226.995 239.293 226.411 239.293 225.767C239.293 225.144 239.415 224.596 239.658 224.123C239.902 223.643 240.253 223.246 240.711 222.931C241.169 222.608 241.721 222.365 242.365 222.2C243.01 222.035 243.729 221.953 244.524 221.953H246.834ZM258.93 226.744V212.5H260.928V229H259.102L258.93 226.744ZM251.109 223.317V223.092C251.109 222.204 251.217 221.398 251.432 220.675C251.654 219.944 251.965 219.318 252.366 218.795C252.774 218.272 253.258 217.871 253.816 217.592C254.382 217.305 255.012 217.162 255.707 217.162C256.438 217.162 257.075 217.291 257.619 217.549C258.171 217.799 258.636 218.168 259.016 218.655C259.402 219.135 259.707 219.715 259.929 220.396C260.151 221.076 260.305 221.846 260.391 222.705V223.693C260.312 224.546 260.158 225.312 259.929 225.992C259.707 226.673 259.402 227.253 259.016 227.732C258.636 228.212 258.171 228.581 257.619 228.839C257.068 229.09 256.423 229.215 255.686 229.215C255.005 229.215 254.382 229.068 253.816 228.774C253.258 228.481 252.774 228.069 252.366 227.539C251.965 227.009 251.654 226.386 251.432 225.67C251.217 224.947 251.109 224.162 251.109 223.317ZM253.107 223.092V223.317C253.107 223.897 253.165 224.442 253.279 224.95C253.401 225.459 253.587 225.906 253.838 226.293C254.089 226.68 254.407 226.984 254.794 227.206C255.181 227.421 255.643 227.528 256.18 227.528C256.839 227.528 257.379 227.389 257.802 227.109C258.231 226.83 258.575 226.461 258.833 226.003C259.091 225.545 259.291 225.047 259.435 224.51V221.921C259.349 221.527 259.223 221.147 259.059 220.782C258.901 220.41 258.693 220.08 258.436 219.794C258.185 219.5 257.873 219.268 257.501 219.096C257.136 218.924 256.702 218.838 256.201 218.838C255.657 218.838 255.188 218.952 254.794 219.182C254.407 219.404 254.089 219.712 253.838 220.105C253.587 220.492 253.401 220.943 253.279 221.459C253.165 221.967 253.107 222.512 253.107 223.092ZM272.744 227.797L275.978 217.377H278.104L273.442 230.794C273.335 231.08 273.192 231.388 273.013 231.718C272.841 232.054 272.619 232.373 272.347 232.674C272.075 232.975 271.745 233.218 271.358 233.404C270.979 233.598 270.524 233.694 269.994 233.694C269.837 233.694 269.636 233.673 269.393 233.63C269.149 233.587 268.977 233.551 268.877 233.522L268.866 231.911C268.924 231.918 269.013 231.925 269.135 231.933C269.264 231.947 269.353 231.954 269.403 231.954C269.854 231.954 270.238 231.893 270.553 231.771C270.868 231.657 271.133 231.46 271.348 231.181C271.57 230.909 271.759 230.533 271.917 230.053L272.744 227.797ZM270.37 217.377L273.389 226.4L273.904 228.495L272.476 229.226L268.2 217.377H270.37ZM279.2 223.317V223.07C279.2 222.232 279.322 221.455 279.565 220.739C279.809 220.016 280.16 219.389 280.618 218.859C281.076 218.322 281.632 217.907 282.283 217.613C282.935 217.312 283.665 217.162 284.475 217.162C285.291 217.162 286.025 217.312 286.677 217.613C287.336 217.907 287.894 218.322 288.353 218.859C288.818 219.389 289.173 220.016 289.416 220.739C289.66 221.455 289.781 222.232 289.781 223.07V223.317C289.781 224.155 289.66 224.932 289.416 225.648C289.173 226.365 288.818 226.991 288.353 227.528C287.894 228.058 287.339 228.474 286.688 228.774C286.043 229.068 285.312 229.215 284.496 229.215C283.68 229.215 282.946 229.068 282.294 228.774C281.642 228.474 281.084 228.058 280.618 227.528C280.16 226.991 279.809 226.365 279.565 225.648C279.322 224.932 279.2 224.155 279.2 223.317ZM281.188 223.07V223.317C281.188 223.897 281.256 224.445 281.392 224.961C281.528 225.469 281.732 225.921 282.004 226.314C282.283 226.708 282.631 227.02 283.046 227.249C283.461 227.471 283.945 227.582 284.496 227.582C285.04 227.582 285.517 227.471 285.925 227.249C286.34 227.02 286.684 226.708 286.956 226.314C287.228 225.921 287.432 225.469 287.568 224.961C287.712 224.445 287.783 223.897 287.783 223.317V223.07C287.783 222.497 287.712 221.957 287.568 221.448C287.432 220.933 287.225 220.478 286.945 220.084C286.673 219.683 286.329 219.368 285.914 219.139C285.506 218.91 285.026 218.795 284.475 218.795C283.93 218.795 283.451 218.91 283.035 219.139C282.627 219.368 282.283 219.683 282.004 220.084C281.732 220.478 281.528 220.933 281.392 221.448C281.256 221.957 281.188 222.497 281.188 223.07ZM299.385 226.314V217.377H301.383V229H299.481L299.385 226.314ZM299.761 223.865L300.588 223.844C300.588 224.617 300.506 225.333 300.341 225.992C300.183 226.644 299.925 227.21 299.567 227.689C299.209 228.169 298.74 228.545 298.16 228.817C297.58 229.082 296.875 229.215 296.044 229.215C295.478 229.215 294.959 229.132 294.486 228.968C294.021 228.803 293.62 228.549 293.283 228.205C292.947 227.861 292.685 227.414 292.499 226.862C292.32 226.311 292.23 225.648 292.23 224.875V217.377H294.218V224.896C294.218 225.419 294.275 225.853 294.39 226.196C294.511 226.533 294.673 226.801 294.873 227.002C295.081 227.195 295.31 227.331 295.561 227.41C295.818 227.489 296.083 227.528 296.355 227.528C297.201 227.528 297.87 227.367 298.364 227.045C298.858 226.715 299.213 226.275 299.428 225.724C299.65 225.165 299.761 224.546 299.761 223.865ZM306.399 219.203V229H304.412V217.377H306.346L306.399 219.203ZM310.03 217.312L310.02 219.16C309.855 219.124 309.697 219.103 309.547 219.096C309.404 219.081 309.239 219.074 309.053 219.074C308.594 219.074 308.19 219.146 307.839 219.289C307.488 219.432 307.191 219.633 306.947 219.891C306.704 220.148 306.51 220.456 306.367 220.814C306.231 221.165 306.142 221.552 306.099 221.975L305.54 222.297C305.54 221.595 305.608 220.936 305.744 220.32C305.887 219.704 306.106 219.16 306.399 218.688C306.693 218.208 307.065 217.835 307.517 217.57C307.975 217.298 308.519 217.162 309.149 217.162C309.293 217.162 309.457 217.18 309.644 217.216C309.83 217.244 309.959 217.277 310.03 217.312ZM71.21 245.858V255H69.2227V243.377H71.1025L71.21 245.858ZM70.7373 248.748L69.9102 248.716C69.9173 247.921 70.0355 247.187 70.2646 246.514C70.4938 245.833 70.8161 245.243 71.2314 244.741C71.6468 244.24 72.141 243.853 72.7139 243.581C73.2939 243.302 73.9349 243.162 74.6367 243.162C75.2096 243.162 75.7253 243.241 76.1836 243.398C76.6419 243.549 77.0322 243.792 77.3545 244.129C77.6839 244.465 77.9346 244.902 78.1064 245.439C78.2783 245.969 78.3643 246.618 78.3643 247.384V255H76.3662V247.362C76.3662 246.754 76.2767 246.267 76.0977 245.901C75.9186 245.529 75.6572 245.26 75.3135 245.096C74.9697 244.924 74.5472 244.838 74.0459 244.838C73.5518 244.838 73.1006 244.942 72.6924 245.149C72.2913 245.357 71.944 245.644 71.6504 246.009C71.3639 246.374 71.1383 246.793 70.9736 247.266C70.8161 247.731 70.7373 248.225 70.7373 248.748ZM86.2061 255.215C85.3968 255.215 84.6628 255.079 84.0039 254.807C83.3522 254.527 82.79 254.137 82.3174 253.636C81.8519 253.134 81.4938 252.54 81.2432 251.853C80.9925 251.165 80.8672 250.413 80.8672 249.597V249.146C80.8672 248.2 81.0068 247.359 81.2861 246.621C81.5654 245.876 81.945 245.246 82.4248 244.73C82.9046 244.215 83.4489 243.825 84.0576 243.56C84.6663 243.295 85.2965 243.162 85.9482 243.162C86.779 243.162 87.4951 243.305 88.0967 243.592C88.7054 243.878 89.2031 244.279 89.5898 244.795C89.9766 245.303 90.263 245.905 90.4492 246.6C90.6354 247.287 90.7285 248.039 90.7285 248.855V249.747H82.0488V248.125H88.7412V247.975C88.7126 247.459 88.6051 246.958 88.4189 246.471C88.2399 245.984 87.9535 245.583 87.5596 245.268C87.1657 244.952 86.6286 244.795 85.9482 244.795C85.4971 244.795 85.0817 244.892 84.7021 245.085C84.3226 245.271 83.9967 245.55 83.7246 245.923C83.4525 246.295 83.2412 246.75 83.0908 247.287C82.9404 247.824 82.8652 248.444 82.8652 249.146V249.597C82.8652 250.148 82.9404 250.667 83.0908 251.154C83.2484 251.634 83.474 252.057 83.7676 252.422C84.0684 252.787 84.43 253.074 84.8525 253.281C85.2822 253.489 85.7692 253.593 86.3135 253.593C87.0153 253.593 87.6097 253.45 88.0967 253.163C88.5837 252.877 89.0098 252.493 89.375 252.014L90.5781 252.97C90.3275 253.349 90.0088 253.711 89.6221 254.055C89.2354 254.398 88.7591 254.678 88.1934 254.893C87.6348 255.107 86.9723 255.215 86.2061 255.215ZM95.9922 252.938L98.9785 243.377H100.289L100.031 245.278L96.9912 255H95.7129L95.9922 252.938ZM93.9834 243.377L96.5293 253.045L96.7119 255H95.3691L91.9961 243.377H93.9834ZM103.146 252.97L105.574 243.377H107.551L104.178 255H102.846L103.146 252.97ZM100.579 243.377L103.501 252.776L103.834 255H102.566L99.4404 245.257L99.1826 243.377H100.579ZM116.359 251.917C116.359 251.631 116.295 251.366 116.166 251.122C116.044 250.871 115.79 250.646 115.403 250.445C115.024 250.238 114.451 250.059 113.685 249.908C113.04 249.772 112.456 249.611 111.934 249.425C111.418 249.239 110.978 249.013 110.612 248.748C110.254 248.483 109.979 248.172 109.785 247.813C109.592 247.455 109.495 247.036 109.495 246.557C109.495 246.098 109.595 245.665 109.796 245.257C110.004 244.849 110.294 244.487 110.666 244.172C111.046 243.857 111.5 243.61 112.03 243.431C112.56 243.252 113.151 243.162 113.803 243.162C114.734 243.162 115.529 243.327 116.188 243.656C116.846 243.986 117.351 244.426 117.702 244.978C118.053 245.522 118.229 246.127 118.229 246.793H116.241C116.241 246.471 116.145 246.159 115.951 245.858C115.765 245.55 115.489 245.296 115.124 245.096C114.766 244.895 114.326 244.795 113.803 244.795C113.251 244.795 112.804 244.881 112.46 245.053C112.123 245.217 111.876 245.429 111.719 245.687C111.568 245.944 111.493 246.216 111.493 246.503C111.493 246.718 111.529 246.911 111.601 247.083C111.679 247.248 111.815 247.402 112.009 247.545C112.202 247.681 112.474 247.81 112.825 247.932C113.176 248.053 113.624 248.175 114.168 248.297C115.12 248.512 115.905 248.77 116.521 249.07C117.136 249.371 117.595 249.74 117.896 250.177C118.196 250.614 118.347 251.144 118.347 251.767C118.347 252.275 118.239 252.741 118.024 253.163C117.817 253.586 117.512 253.951 117.111 254.259C116.717 254.56 116.245 254.796 115.693 254.968C115.149 255.132 114.537 255.215 113.856 255.215C112.832 255.215 111.966 255.032 111.257 254.667C110.548 254.302 110.011 253.829 109.646 253.249C109.28 252.669 109.098 252.057 109.098 251.412H111.096C111.124 251.956 111.282 252.39 111.568 252.712C111.855 253.027 112.206 253.253 112.621 253.389C113.036 253.518 113.448 253.582 113.856 253.582C114.401 253.582 114.855 253.51 115.221 253.367C115.593 253.224 115.876 253.027 116.069 252.776C116.263 252.526 116.359 252.239 116.359 251.917ZM120.989 253.947C120.989 253.611 121.093 253.328 121.301 253.099C121.516 252.862 121.824 252.744 122.225 252.744C122.626 252.744 122.93 252.862 123.138 253.099C123.353 253.328 123.46 253.611 123.46 253.947C123.46 254.277 123.353 254.556 123.138 254.785C122.93 255.014 122.626 255.129 122.225 255.129C121.824 255.129 121.516 255.014 121.301 254.785C121.093 254.556 120.989 254.277 120.989 253.947ZM139.079 250.435V239.359H141.142V250.435C141.142 251.466 140.93 252.336 140.508 253.045C140.085 253.754 139.502 254.295 138.757 254.667C138.019 255.032 137.171 255.215 136.211 255.215C135.251 255.215 134.399 255.05 133.654 254.721C132.91 254.391 132.326 253.89 131.903 253.217C131.481 252.544 131.27 251.695 131.27 250.671H133.343C133.343 251.33 133.465 251.87 133.708 252.293C133.951 252.715 134.288 253.027 134.718 253.228C135.155 253.428 135.652 253.528 136.211 253.528C136.755 253.528 137.242 253.414 137.672 253.185C138.109 252.948 138.452 252.601 138.703 252.143C138.954 251.677 139.079 251.108 139.079 250.435ZM151.465 252.314V243.377H153.463V255H151.562L151.465 252.314ZM151.841 249.865L152.668 249.844C152.668 250.617 152.586 251.333 152.421 251.992C152.263 252.644 152.006 253.21 151.647 253.689C151.289 254.169 150.82 254.545 150.24 254.817C149.66 255.082 148.955 255.215 148.124 255.215C147.558 255.215 147.039 255.132 146.566 254.968C146.101 254.803 145.7 254.549 145.363 254.205C145.027 253.861 144.765 253.414 144.579 252.862C144.4 252.311 144.311 251.648 144.311 250.875V243.377H146.298V250.896C146.298 251.419 146.355 251.853 146.47 252.196C146.591 252.533 146.753 252.801 146.953 253.002C147.161 253.195 147.39 253.331 147.641 253.41C147.898 253.489 148.163 253.528 148.436 253.528C149.281 253.528 149.95 253.367 150.444 253.045C150.938 252.715 151.293 252.275 151.508 251.724C151.73 251.165 151.841 250.546 151.841 249.865ZM163.26 251.917C163.26 251.631 163.195 251.366 163.066 251.122C162.945 250.871 162.69 250.646 162.304 250.445C161.924 250.238 161.351 250.059 160.585 249.908C159.94 249.772 159.357 249.611 158.834 249.425C158.318 249.239 157.878 249.013 157.513 248.748C157.155 248.483 156.879 248.172 156.686 247.813C156.492 247.455 156.396 247.036 156.396 246.557C156.396 246.098 156.496 245.665 156.696 245.257C156.904 244.849 157.194 244.487 157.566 244.172C157.946 243.857 158.401 243.61 158.931 243.431C159.461 243.252 160.051 243.162 160.703 243.162C161.634 243.162 162.429 243.327 163.088 243.656C163.747 243.986 164.252 244.426 164.603 244.978C164.953 245.522 165.129 246.127 165.129 246.793H163.142C163.142 246.471 163.045 246.159 162.852 245.858C162.665 245.55 162.39 245.296 162.024 245.096C161.666 244.895 161.226 244.795 160.703 244.795C160.152 244.795 159.704 244.881 159.36 245.053C159.024 245.217 158.777 245.429 158.619 245.687C158.469 245.944 158.394 246.216 158.394 246.503C158.394 246.718 158.429 246.911 158.501 247.083C158.58 247.248 158.716 247.402 158.909 247.545C159.103 247.681 159.375 247.81 159.726 247.932C160.076 248.053 160.524 248.175 161.068 248.297C162.021 248.512 162.805 248.77 163.421 249.07C164.037 249.371 164.495 249.74 164.796 250.177C165.097 250.614 165.247 251.144 165.247 251.767C165.247 252.275 165.14 252.741 164.925 253.163C164.717 253.586 164.413 253.951 164.012 254.259C163.618 254.56 163.145 254.796 162.594 254.968C162.049 255.132 161.437 255.215 160.757 255.215C159.733 255.215 158.866 255.032 158.157 254.667C157.448 254.302 156.911 253.829 156.546 253.249C156.181 252.669 155.998 252.057 155.998 251.412H157.996C158.025 251.956 158.182 252.39 158.469 252.712C158.755 253.027 159.106 253.253 159.521 253.389C159.937 253.518 160.349 253.582 160.757 253.582C161.301 253.582 161.756 253.51 162.121 253.367C162.493 253.224 162.776 253.027 162.97 252.776C163.163 252.526 163.26 252.239 163.26 251.917ZM172.724 243.377V244.902H166.439V243.377H172.724ZM168.566 240.552H170.554V252.121C170.554 252.515 170.615 252.812 170.736 253.013C170.858 253.213 171.016 253.346 171.209 253.41C171.402 253.475 171.61 253.507 171.832 253.507C171.997 253.507 172.169 253.493 172.348 253.464C172.534 253.428 172.674 253.399 172.767 253.378L172.777 255C172.62 255.05 172.412 255.097 172.154 255.14C171.904 255.19 171.599 255.215 171.241 255.215C170.754 255.215 170.307 255.118 169.898 254.925C169.49 254.731 169.164 254.409 168.921 253.958C168.685 253.5 168.566 252.884 168.566 252.11V240.552ZM179.985 249.317V249.07C179.985 248.232 180.107 247.455 180.351 246.739C180.594 246.016 180.945 245.389 181.403 244.859C181.862 244.322 182.417 243.907 183.068 243.613C183.72 243.312 184.451 243.162 185.26 243.162C186.076 243.162 186.81 243.312 187.462 243.613C188.121 243.907 188.679 244.322 189.138 244.859C189.603 245.389 189.958 246.016 190.201 246.739C190.445 247.455 190.566 248.232 190.566 249.07V249.317C190.566 250.155 190.445 250.932 190.201 251.648C189.958 252.365 189.603 252.991 189.138 253.528C188.679 254.058 188.124 254.474 187.473 254.774C186.828 255.068 186.098 255.215 185.281 255.215C184.465 255.215 183.731 255.068 183.079 254.774C182.427 254.474 181.869 254.058 181.403 253.528C180.945 252.991 180.594 252.365 180.351 251.648C180.107 250.932 179.985 250.155 179.985 249.317ZM181.973 249.07V249.317C181.973 249.897 182.041 250.445 182.177 250.961C182.313 251.469 182.517 251.921 182.789 252.314C183.068 252.708 183.416 253.02 183.831 253.249C184.246 253.471 184.73 253.582 185.281 253.582C185.826 253.582 186.302 253.471 186.71 253.249C187.125 253.02 187.469 252.708 187.741 252.314C188.013 251.921 188.217 251.469 188.354 250.961C188.497 250.445 188.568 249.897 188.568 249.317V249.07C188.568 248.497 188.497 247.957 188.354 247.448C188.217 246.933 188.01 246.478 187.73 246.084C187.458 245.683 187.115 245.368 186.699 245.139C186.291 244.91 185.811 244.795 185.26 244.795C184.715 244.795 184.236 244.91 183.82 245.139C183.412 245.368 183.068 245.683 182.789 246.084C182.517 246.478 182.313 246.933 182.177 247.448C182.041 247.957 181.973 248.497 181.973 249.07ZM195.046 245.611V259.469H193.048V243.377H194.874L195.046 245.611ZM202.877 249.092V249.317C202.877 250.162 202.777 250.947 202.576 251.67C202.376 252.386 202.082 253.009 201.695 253.539C201.316 254.069 200.847 254.481 200.288 254.774C199.729 255.068 199.089 255.215 198.365 255.215C197.628 255.215 196.976 255.093 196.41 254.85C195.844 254.606 195.365 254.252 194.971 253.786C194.577 253.321 194.262 252.762 194.025 252.11C193.796 251.459 193.639 250.725 193.553 249.908V248.705C193.639 247.846 193.8 247.076 194.036 246.396C194.272 245.715 194.584 245.135 194.971 244.655C195.365 244.168 195.841 243.799 196.399 243.549C196.958 243.291 197.603 243.162 198.333 243.162C199.063 243.162 199.712 243.305 200.277 243.592C200.843 243.871 201.319 244.272 201.706 244.795C202.093 245.318 202.383 245.944 202.576 246.675C202.777 247.398 202.877 248.204 202.877 249.092ZM200.879 249.317V249.092C200.879 248.512 200.818 247.967 200.696 247.459C200.575 246.943 200.385 246.492 200.127 246.105C199.876 245.712 199.554 245.404 199.16 245.182C198.766 244.952 198.297 244.838 197.753 244.838C197.252 244.838 196.815 244.924 196.442 245.096C196.077 245.268 195.766 245.5 195.508 245.794C195.25 246.08 195.039 246.41 194.874 246.782C194.716 247.147 194.598 247.527 194.52 247.921V250.703C194.663 251.204 194.863 251.677 195.121 252.121C195.379 252.558 195.723 252.912 196.152 253.185C196.582 253.45 197.123 253.582 197.774 253.582C198.312 253.582 198.773 253.471 199.16 253.249C199.554 253.02 199.876 252.708 200.127 252.314C200.385 251.921 200.575 251.469 200.696 250.961C200.818 250.445 200.879 249.897 200.879 249.317ZM210.235 255.215C209.426 255.215 208.692 255.079 208.033 254.807C207.382 254.527 206.819 254.137 206.347 253.636C205.881 253.134 205.523 252.54 205.272 251.853C205.022 251.165 204.896 250.413 204.896 249.597V249.146C204.896 248.2 205.036 247.359 205.315 246.621C205.595 245.876 205.974 245.246 206.454 244.73C206.934 244.215 207.478 243.825 208.087 243.56C208.696 243.295 209.326 243.162 209.978 243.162C210.808 243.162 211.524 243.305 212.126 243.592C212.735 243.878 213.232 244.279 213.619 244.795C214.006 245.303 214.292 245.905 214.479 246.6C214.665 247.287 214.758 248.039 214.758 248.855V249.747H206.078V248.125H212.771V247.975C212.742 247.459 212.634 246.958 212.448 246.471C212.269 245.984 211.983 245.583 211.589 245.268C211.195 244.952 210.658 244.795 209.978 244.795C209.526 244.795 209.111 244.892 208.731 245.085C208.352 245.271 208.026 245.55 207.754 245.923C207.482 246.295 207.271 246.75 207.12 247.287C206.97 247.824 206.895 248.444 206.895 249.146V249.597C206.895 250.148 206.97 250.667 207.12 251.154C207.278 251.634 207.503 252.057 207.797 252.422C208.098 252.787 208.459 253.074 208.882 253.281C209.312 253.489 209.799 253.593 210.343 253.593C211.045 253.593 211.639 253.45 212.126 253.163C212.613 252.877 213.039 252.493 213.404 252.014L214.607 252.97C214.357 253.349 214.038 253.711 213.651 254.055C213.265 254.398 212.788 254.678 212.223 254.893C211.664 255.107 211.002 255.215 210.235 255.215ZM219.065 245.858V255H217.078V243.377H218.958L219.065 245.858ZM218.593 248.748L217.766 248.716C217.773 247.921 217.891 247.187 218.12 246.514C218.349 245.833 218.672 245.243 219.087 244.741C219.502 244.24 219.996 243.853 220.569 243.581C221.149 243.302 221.79 243.162 222.492 243.162C223.065 243.162 223.581 243.241 224.039 243.398C224.497 243.549 224.888 243.792 225.21 244.129C225.539 244.465 225.79 244.902 225.962 245.439C226.134 245.969 226.22 246.618 226.22 247.384V255H224.222V247.362C224.222 246.754 224.132 246.267 223.953 245.901C223.774 245.529 223.513 245.26 223.169 245.096C222.825 244.924 222.403 244.838 221.901 244.838C221.407 244.838 220.956 244.942 220.548 245.149C220.147 245.357 219.799 245.644 219.506 246.009C219.219 246.374 218.994 246.793 218.829 247.266C218.672 247.731 218.593 248.225 218.593 248.748ZM239.562 243.377V244.902H233.277V243.377H239.562ZM235.404 240.552H237.392V252.121C237.392 252.515 237.452 252.812 237.574 253.013C237.696 253.213 237.854 253.346 238.047 253.41C238.24 253.475 238.448 253.507 238.67 253.507C238.835 253.507 239.007 253.493 239.186 253.464C239.372 253.428 239.511 253.399 239.604 253.378L239.615 255C239.458 255.05 239.25 255.097 238.992 255.14C238.742 255.19 238.437 255.215 238.079 255.215C237.592 255.215 237.145 255.118 236.736 254.925C236.328 254.731 236.002 254.409 235.759 253.958C235.522 253.5 235.404 252.884 235.404 252.11V240.552ZM243.88 238.5V255H241.893V238.5H243.88ZM243.407 248.748L242.58 248.716C242.587 247.921 242.705 247.187 242.935 246.514C243.164 245.833 243.486 245.243 243.901 244.741C244.317 244.24 244.811 243.853 245.384 243.581C245.964 243.302 246.605 243.162 247.307 243.162C247.88 243.162 248.395 243.241 248.854 243.398C249.312 243.549 249.702 243.792 250.024 244.129C250.354 244.465 250.604 244.902 250.776 245.439C250.948 245.969 251.034 246.618 251.034 247.384V255H249.036V247.362C249.036 246.754 248.947 246.267 248.768 245.901C248.589 245.529 248.327 245.26 247.983 245.096C247.64 244.924 247.217 244.838 246.716 244.838C246.222 244.838 245.771 244.942 245.362 245.149C244.961 245.357 244.614 245.644 244.32 246.009C244.034 246.374 243.808 246.793 243.644 247.266C243.486 247.731 243.407 248.225 243.407 248.748ZM258.833 255.215C258.024 255.215 257.29 255.079 256.631 254.807C255.979 254.527 255.417 254.137 254.944 253.636C254.479 253.134 254.121 252.54 253.87 251.853C253.619 251.165 253.494 250.413 253.494 249.597V249.146C253.494 248.2 253.634 247.359 253.913 246.621C254.192 245.876 254.572 245.246 255.052 244.73C255.532 244.215 256.076 243.825 256.685 243.56C257.293 243.295 257.924 243.162 258.575 243.162C259.406 243.162 260.122 243.305 260.724 243.592C261.332 243.878 261.83 244.279 262.217 244.795C262.604 245.303 262.89 245.905 263.076 246.6C263.262 247.287 263.355 248.039 263.355 248.855V249.747H254.676V248.125H261.368V247.975C261.34 247.459 261.232 246.958 261.046 246.471C260.867 245.984 260.58 245.583 260.187 245.268C259.793 244.952 259.256 244.795 258.575 244.795C258.124 244.795 257.709 244.892 257.329 245.085C256.95 245.271 256.624 245.55 256.352 245.923C256.079 246.295 255.868 246.75 255.718 247.287C255.567 247.824 255.492 248.444 255.492 249.146V249.597C255.492 250.148 255.567 250.667 255.718 251.154C255.875 251.634 256.101 252.057 256.395 252.422C256.695 252.787 257.057 253.074 257.479 253.281C257.909 253.489 258.396 253.593 258.94 253.593C259.642 253.593 260.237 253.45 260.724 253.163C261.211 252.877 261.637 252.493 262.002 252.014L263.205 252.97C262.954 253.349 262.636 253.711 262.249 254.055C261.862 254.398 261.386 254.678 260.82 254.893C260.262 255.107 259.599 255.215 258.833 255.215ZM277.986 253.013V247.029C277.986 246.571 277.893 246.174 277.707 245.837C277.528 245.493 277.256 245.228 276.891 245.042C276.525 244.856 276.074 244.763 275.537 244.763C275.036 244.763 274.595 244.849 274.216 245.021C273.843 245.192 273.55 245.418 273.335 245.697C273.127 245.977 273.023 246.277 273.023 246.6H271.036C271.036 246.184 271.144 245.772 271.358 245.364C271.573 244.956 271.881 244.587 272.282 244.258C272.69 243.921 273.177 243.656 273.743 243.463C274.316 243.262 274.953 243.162 275.655 243.162C276.5 243.162 277.245 243.305 277.89 243.592C278.541 243.878 279.05 244.312 279.415 244.892C279.787 245.465 279.974 246.184 279.974 247.051V252.465C279.974 252.852 280.006 253.263 280.07 253.7C280.142 254.137 280.246 254.513 280.382 254.828V255H278.309C278.208 254.771 278.13 254.466 278.072 254.087C278.015 253.7 277.986 253.342 277.986 253.013ZM278.33 247.953L278.352 249.35H276.343C275.777 249.35 275.272 249.396 274.828 249.489C274.384 249.575 274.012 249.708 273.711 249.887C273.41 250.066 273.181 250.291 273.023 250.563C272.866 250.828 272.787 251.14 272.787 251.498C272.787 251.863 272.869 252.196 273.034 252.497C273.199 252.798 273.446 253.038 273.775 253.217C274.112 253.389 274.524 253.475 275.011 253.475C275.619 253.475 276.157 253.346 276.622 253.088C277.088 252.83 277.456 252.515 277.729 252.143C278.008 251.77 278.158 251.409 278.18 251.058L279.028 252.014C278.978 252.314 278.842 252.647 278.62 253.013C278.398 253.378 278.101 253.729 277.729 254.065C277.363 254.395 276.926 254.671 276.418 254.893C275.917 255.107 275.351 255.215 274.721 255.215C273.933 255.215 273.242 255.061 272.647 254.753C272.06 254.445 271.602 254.033 271.272 253.518C270.95 252.995 270.789 252.411 270.789 251.767C270.789 251.144 270.911 250.596 271.154 250.123C271.398 249.643 271.749 249.246 272.207 248.931C272.665 248.608 273.217 248.365 273.861 248.2C274.506 248.035 275.226 247.953 276.021 247.953H278.33ZM285.087 245.611V259.469H283.089V243.377H284.915L285.087 245.611ZM292.918 249.092V249.317C292.918 250.162 292.818 250.947 292.617 251.67C292.417 252.386 292.123 253.009 291.736 253.539C291.357 254.069 290.888 254.481 290.329 254.774C289.771 255.068 289.13 255.215 288.406 255.215C287.669 255.215 287.017 255.093 286.451 254.85C285.885 254.606 285.406 254.252 285.012 253.786C284.618 253.321 284.303 252.762 284.066 252.11C283.837 251.459 283.68 250.725 283.594 249.908V248.705C283.68 247.846 283.841 247.076 284.077 246.396C284.313 245.715 284.625 245.135 285.012 244.655C285.406 244.168 285.882 243.799 286.44 243.549C286.999 243.291 287.644 243.162 288.374 243.162C289.104 243.162 289.753 243.305 290.318 243.592C290.884 243.871 291.36 244.272 291.747 244.795C292.134 245.318 292.424 245.944 292.617 246.675C292.818 247.398 292.918 248.204 292.918 249.092ZM290.92 249.317V249.092C290.92 248.512 290.859 247.967 290.737 247.459C290.616 246.943 290.426 246.492 290.168 246.105C289.917 245.712 289.595 245.404 289.201 245.182C288.807 244.952 288.338 244.838 287.794 244.838C287.293 244.838 286.856 244.924 286.483 245.096C286.118 245.268 285.807 245.5 285.549 245.794C285.291 246.08 285.08 246.41 284.915 246.782C284.757 247.147 284.639 247.527 284.561 247.921V250.703C284.704 251.204 284.904 251.677 285.162 252.121C285.42 252.558 285.764 252.912 286.193 253.185C286.623 253.45 287.164 253.582 287.815 253.582C288.353 253.582 288.814 253.471 289.201 253.249C289.595 253.02 289.917 252.708 290.168 252.314C290.426 251.921 290.616 251.469 290.737 250.961C290.859 250.445 290.92 249.897 290.92 249.317ZM297.44 245.611V259.469H295.442V243.377H297.269L297.44 245.611ZM305.271 249.092V249.317C305.271 250.162 305.171 250.947 304.971 251.67C304.77 252.386 304.477 253.009 304.09 253.539C303.71 254.069 303.241 254.481 302.683 254.774C302.124 255.068 301.483 255.215 300.76 255.215C300.022 255.215 299.37 255.093 298.805 254.85C298.239 254.606 297.759 254.252 297.365 253.786C296.971 253.321 296.656 252.762 296.42 252.11C296.191 251.459 296.033 250.725 295.947 249.908V248.705C296.033 247.846 296.194 247.076 296.431 246.396C296.667 245.715 296.979 245.135 297.365 244.655C297.759 244.168 298.235 243.799 298.794 243.549C299.353 243.291 299.997 243.162 300.728 243.162C301.458 243.162 302.106 243.305 302.672 243.592C303.238 243.871 303.714 244.272 304.101 244.795C304.487 245.318 304.777 245.944 304.971 246.675C305.171 247.398 305.271 248.204 305.271 249.092ZM303.273 249.317V249.092C303.273 248.512 303.213 247.967 303.091 247.459C302.969 246.943 302.779 246.492 302.521 246.105C302.271 245.712 301.949 245.404 301.555 245.182C301.161 244.952 300.692 244.838 300.147 244.838C299.646 244.838 299.209 244.924 298.837 245.096C298.472 245.268 298.16 245.5 297.902 245.794C297.645 246.08 297.433 246.41 297.269 246.782C297.111 247.147 296.993 247.527 296.914 247.921V250.703C297.057 251.204 297.258 251.677 297.516 252.121C297.773 252.558 298.117 252.912 298.547 253.185C298.977 253.45 299.517 253.582 300.169 253.582C300.706 253.582 301.168 253.471 301.555 253.249C301.949 253.02 302.271 252.708 302.521 252.314C302.779 251.921 302.969 251.469 303.091 250.961C303.213 250.445 303.273 249.897 303.273 249.317Z" fill="#CACAEE"/>
<path d="M317 28C317 31.866 313.866 35 310 35H69C65.134 35 62 31.866 62 28V27C62 23.134 65.134 20 69 20H310C313.866 20 317 23.134 317 27V28Z" fill="#514D6B"/>
<path d="M165 27.5C165 30.5376 162.538 33 159.5 33H70.5C67.4624 33 65 30.5376 65 27.5C65 24.4624 67.4624 22 70.5 22H159.5C162.538 22 165 24.4624 165 27.5Z" fill="#FD5959"/>
<path d="M303.336 645H301.512L296.024 636.696V645H294.2V633.864H296.024L301.512 642.152V633.864H303.336V645ZM313.811 640.376C313.811 640.707 313.79 641.005 313.747 641.272H307.011C307.065 641.976 307.326 642.541 307.795 642.968C308.265 643.395 308.841 643.608 309.523 643.608C310.505 643.608 311.198 643.197 311.603 642.376H313.571C313.305 643.187 312.819 643.853 312.115 644.376C311.422 644.888 310.558 645.144 309.523 645.144C308.681 645.144 307.923 644.957 307.251 644.584C306.59 644.2 306.067 643.667 305.683 642.984C305.31 642.291 305.123 641.491 305.123 640.584C305.123 639.677 305.305 638.883 305.667 638.2C306.041 637.507 306.558 636.973 307.219 636.6C307.891 636.227 308.659 636.04 309.523 636.04C310.355 636.04 311.097 636.221 311.747 636.584C312.398 636.947 312.905 637.459 313.267 638.12C313.63 638.771 313.811 639.523 313.811 640.376ZM311.907 639.8C311.897 639.128 311.657 638.589 311.187 638.184C310.718 637.779 310.137 637.576 309.443 637.576C308.814 637.576 308.275 637.779 307.827 638.184C307.379 638.579 307.113 639.117 307.027 639.8H311.907ZM319.382 640.536L322.23 645H320.166L318.262 642.008L316.47 645H314.566L317.414 640.664L314.566 636.184H316.63L318.534 639.176L320.326 636.184H322.23L319.382 640.536ZM325.719 637.672V642.552C325.719 642.883 325.793 643.123 325.943 643.272C326.103 643.411 326.369 643.48 326.743 643.48H327.863V645H326.423C325.601 645 324.972 644.808 324.535 644.424C324.097 644.04 323.879 643.416 323.879 642.552V637.672H322.839V636.184H323.879V633.992H325.719V636.184H327.863V637.672H325.719Z" fill="white"/>
<path d="M340.333 631.667L347.667 639L340.333 646.333" stroke="white" stroke-width="2" stroke-linecap="round" stroke-linejoin="round"/>
</g>
<defs>
<clipPath id="clip0_5630_2556">
<rect width="375" height="667" fill="white"/>
</clipPath>
</defs>
</svg>
